Coordinates
version=1
nRows=13
nColumns=40
inDegrees=yes

Units are S.I. units (second, meters, Newtons, ...)
If the header above contains a line with 'inDegrees', this indicates whether rotational values are in degrees (yes) or radians (no).

endheader
time	pelvis_tilt	pelvis_list	pelvis_rotation	pelvis_tx	pelvis_ty	pelvis_tz	hip_flexion_r	hip_adduction_r	hip_rotation_r	knee_angle_r	knee_angle_r_beta	ankle_angle_r	subtalar_angle_r	mtp_angle_r	hip_flexion_l	hip_adduction_l	hip_rotation_l	knee_angle_l	knee_angle_l_beta	ankle_angle_l	subtalar_angle_l	mtp_angle_l	lumbar_extension	lumbar_bending	lumbar_rotation	arm_flex_r	arm_add_r	arm_rot_r	elbow_flex_r	pro_sup_r	wrist_flex_r	wrist_dev_r	arm_flex_l	arm_add_l	arm_rot_l	elbow_flex_l	pro_sup_l	wrist_flex_l	wrist_dev_l
      1.80000000	     -1.95329604	     -0.44187800	      1.50072733	     -0.23544604	      1.04404707	     -0.98936032	      6.28169026	     -9.55745443	     -1.37465773	     73.03136538	      1.27463778	     -3.52588215	      0.00000000	      0.00000000	      9.66119036	      1.87665273	     -1.00004680	     18.47056123	      0.32237211	      1.00023183	      0.00000000	      0.00000000	     -1.22551483	     -4.29337118	     -5.97866855	     89.86403924	     -4.31168245	     54.68443592	     43.04485067	     83.42120751	      0.00000000	      0.00000000	     89.91276392	    -14.66998251	     53.55581164	     46.55282295	     87.27847155	      0.00000000	      0.00000000
      1.80500000	     -2.01469711	     -0.44192430	      1.53671555	     -0.23561913	      1.04367799	     -0.98930391	      6.20508644	     -9.51338461	     -1.47912093	     73.03652457	      1.27472783	     -3.57924873	      0.00000000	      0.00000000	      9.84945797	      1.89308488	     -0.92850846	     18.70241744	      0.32641876	      1.07592128	      0.00000000	      0.00000000	     -1.19103425	     -4.29173569	     -6.00523473	     89.86376022	     -4.22241898	     54.49696498	     42.93430414	     84.02379783	      0.00000000	      0.00000000	     89.91321420	    -14.71237240	     53.50469093	     46.58838429	     87.18364176	      0.00000000	      0.00000000
      1.81000000	     -2.07253759	     -0.45828812	      1.47682444	     -0.23566345	      1.04329055	     -0.98918178	      6.15894146	     -9.42186935	     -1.45698815	     73.10145718	      1.27586112	     -3.40763268	      0.00000000	      0.00000000	     10.02461827	      1.86462804	     -0.98488436	     18.91312244	      0.33009626	      1.20246914	      0.00000000	      0.00000000	     -1.14435366	     -4.27574987	     -5.93962034	     89.86552797	     -4.24543663	     54.60278926	     42.97973327	     83.95423282	      0.00000000	      0.00000000	     89.91294126	    -14.67642755	     53.41730127	     46.47389625	     87.14496718	      0.00000000	      0.00000000
      1.81500000	     -2.12128014	     -0.46912423	      1.53402329	     -0.23584403	      1.04290301	     -0.98919600	      6.07898887	     -9.37741127	     -1.58395497	     73.09572366	      1.27576105	     -3.59362731	      0.00000000	      0.00000000	     10.21157845	      1.87651412	     -0.81149801	     19.16796481	      0.33454410	      1.40990456	      0.00000000	      0.00000000	     -1.11991742	     -4.26452981	     -5.95096227	     89.86528944	     -4.18685061	     54.43462098	     42.87514885	     84.12758734	      0.00000000	      0.00000000	     89.91317113	    -14.71202645	     53.54962322	     46.60620845	     87.15674047	      0.00000000	      0.00000000
      1.82000000	     -2.16783923	     -0.45988717	      1.55482761	     -0.23628999	      1.04256330	     -0.98902640	      6.03586436	     -9.30283111	     -1.65195079	     73.15629461	      1.27681821	     -3.41680382	      0.00000000	      0.00000000	     10.42400191	      1.88736054	     -0.75559240	     19.49092708	      0.34018085	      1.68567304	      0.00000000	      0.00000000	     -1.14529070	     -4.27172084	     -5.96534784	     89.86548500	     -4.16336672	     54.34624732	     42.92882884	     83.95440478	      0.00000000	      0.00000000	     89.91380658	    -14.77063338	     53.43157448	     46.69185482	     87.15556956	      0.00000000	      0.00000000
      1.82500000	     -2.30539135	     -0.61311350	      1.62386548	     -0.23670588	      1.04206451	     -0.98880565	      6.07520415	     -9.02909640	     -1.71282533	     73.16528421	      1.27697511	     -3.48839383	      0.00000000	      0.00000000	     10.78573734	      1.71339297	     -0.70664792	     19.89508072	      0.34723466	      2.00004631	      0.00000000	      0.00000000	     -1.03596988	     -4.12187129	     -5.98916736	     89.86692538	     -4.14988823	     54.22918963	     42.92081229	     84.19198215	      0.00000000	      0.00000000	     89.91396755	    -14.73279691	     53.41832496	     46.61000171	     87.11346121	      0.00000000	      0.00000000
      1.83000000	     -2.50307403	     -0.64412925	      1.62127559	     -0.23709350	      1.04156376	     -0.98875425	      6.21778116	     -8.92349126	     -1.73149591	     73.23996984	      1.27827862	     -3.45792792	      0.00000000	      0.00000000	     11.14614526	      1.69929039	     -0.53630280	     20.15575842	      0.35178435	      2.16024502	      0.00000000	      0.00000000	     -0.86646918	     -4.08694969	     -5.95673533	     89.86749500	     -4.17982838	     54.27094067	     42.96597528	     83.97208275	      0.00000000	      0.00000000	     89.91406273	    -14.72398143	     53.36177292	     46.60775254	     87.14651108	      0.00000000	      0.00000000
      1.83500000	     -2.54921592	     -0.68692870	      1.64359945	     -0.23733258	      1.04112105	     -0.98866773	      6.13161698	     -8.77496049	     -1.72550422	     73.20331783	      1.27763892	     -3.51737766	      0.00000000	      0.00000000	     11.32299234	      1.66800573	     -0.45639660	     20.37784645	      0.35566052	      2.26952098	      0.00000000	      0.00000000	     -0.85606897	     -4.03459184	     -5.95728639	     89.86790837	     -4.16217919	     54.18717603	     42.97824987	     84.18210211	      0.00000000	      0.00000000	     89.91438009	    -14.74464135	     53.30343165	     46.62003987	     87.12096414	      0.00000000	      0.00000000
      1.84000000	     -2.61037131	     -0.72561963	      1.60343577	     -0.23759391	      1.04079135	     -0.98853960	      6.12482407	     -8.66399362	     -1.76546425	     73.19571346	      1.27750620	     -3.58035589	      0.00000000	      0.00000000	     11.52435063	      1.63202176	     -0.45876579	     20.63056602	      0.36007130	      2.39206755	      0.00000000	      0.00000000	     -0.83386609	     -3.98592324	     -5.87691062	     89.86795684	     -4.16498196	     54.12649464	     43.00507302	     84.17117820	      0.00000000	      0.00000000	     89.91454909	    -14.74447982	     53.23481421	     46.65553001	     87.13745036	      0.00000000	      0.00000000
      1.84500000	     -2.65011727	     -0.74921163	      1.61184970	     -0.23779963	      1.04039587	     -0.98849796	      6.03581918	     -8.54632218	     -1.76019056	     73.14240765	      1.27657584	     -3.66418114	      0.00000000	      0.00000000	     11.68380161	      1.60243774	     -0.42555445	     20.87050835	      0.36425909	      2.61385439	      0.00000000	      0.00000000	     -0.80918971	     -3.94529866	     -5.86487963	     89.86837038	     -4.08491680	     54.03906324	     42.88141704	     84.23324200	      0.00000000	      0.00000000	     89.91434970	    -14.76920547	     53.27525722	     46.65058636	     87.12852075	      0.00000000	      0.00000000
      1.85000000	     -2.54058570	     -0.54954563	      1.42333690	     -0.23744204	      1.04026872	     -0.98849946	      5.77071548	     -8.69273726	     -1.63940431	     73.02257991	      1.27448445	     -3.65618376	      0.00000000	      0.00000000	     11.53004684	      1.79410291	     -0.66568941	     20.86600040	      0.36418041	      2.66351694	      0.00000000	      0.00000000	     -0.91973050	     -4.12503777	     -5.65724261	     89.86821591	     -4.06977029	     54.02946887	     42.89883544	     84.19257254	      0.00000000	      0.00000000	     89.91404386	    -14.81634343	     53.30438906	     46.73600819	     87.13672491	      0.00000000	      0.00000000
      1.85500000	     -2.54218352	     -0.55217089	      1.48435910	     -0.23756070	      1.03995288	     -0.98858909	      5.65003447	     -8.64138482	     -1.74058401	     72.94448259	      1.27312139	     -3.92153776	      0.00000000	      0.00000000	     11.62306631	      1.82465996	     -0.49571514	     21.04179878	      0.36724867	      2.80103854	      0.00000000	      0.00000000	     -0.95960782	     -4.09297796	     -5.68981949	     89.86868882	     -4.05714996	     53.96235243	     42.92960591	     83.88733633	      0.00000000	      0.00000000	     89.91414229	    -14.88260952	     53.31820978	     46.83161091	     87.21961964	      0.00000000	      0.00000000
      1.86000000	     -2.53306460	     -0.56811448	      1.41204739	     -0.23775846	      1.03966160	     -0.98840949	      5.49782856	     -8.45677953	     -1.59988874	     72.92858441	      1.27284392	     -3.64483189	      0.00000000	      0.00000000	     11.68619806	      1.79553424	     -0.58466006	     21.17593915	      0.36958986	      2.93283654	      0.00000000	      0.00000000	     -1.01157388	     -4.06835827	     -5.59663349	     89.86904888	     -4.03304137	     53.90359635	     42.95069677	     82.93431492	      0.00000000	      0.00000000	     89.91414771	    -14.88188480	     53.19607957	     46.81518453	     87.29555872	      0.00000000	      0.00000000
